# xmcd
#
# Track frame offsets:
#	150
#	20330
#	37152
#	52820
#	70580
#	86312
#	104087
#	122105
#	137435
#	155022
#	172165
#	187865
#	206295
#	225122
#
# Disc length: 3241 seconds
#
# Revision: 0
# Processed by: cddbd v1.5.2PL0 Copyright (c) Steve Scherf et al.
# Submitted via: EasyCDDAExtractor 16.0.4.1
#
DISCID=ad0ca70e
DTITLE=Legende - Sve Najlepše
DYEAR=1996
DGENRE=Pop
TTITLE0=Cetrdesete
TTITLE1=Slutnja
TTITLE2=Zbog tebe
TTITLE3=Nemam snova
TTITLE4=Ne pitaj
TTITLE5=Uspavanka
TTITLE6=Ne veruj
TTITLE7=Nova godina
TTITLE8=Prvi sneg
TTITLE9=Nocas
TTITLE10=Ta oka dva
TTITLE11=Strah me
TTITLE12=Uspomene
TTITLE13=Cetrdesete (II verzija)
EXTD=
EXTT0=
EXTT1=
EXTT2=
EXTT3=
EXTT4=
EXTT5=
EXTT6=
EXTT7=
EXTT8=
EXTT9=
EXTT10=
EXTT11=
EXTT12=
EXTT13=
PLAYORDER=
